<?xml version="1.0" encoding="utf-8"?>
<!-- Generator: Adobe Illustrator 25.2.1, SVG Export Plug-In . SVG Version: 6.00 Build 0)  -->
<svg version="1.1" id="Layer_1" xmlns="http://www.w3.org/2000/svg" xmlns:xlink="http://www.w3.org/1999/xlink" x="0px" y="0px"
	 viewBox="0 0 238.1 171.8" style="enable-background:new 0 0 238.1 171.8;" xml:space="preserve">
<style type="text/css">
	.st0{fill-rule:evenodd;clip-rule:evenodd;fill:#1C7AB5;}
</style>
<path class="st0" d="M66.5,171.8V0h-8.3v32.6L0,139.4h58.2v32.4H66.5z M58.1,130.9l-42.1-0.2l42.4-80.8L58.1,130.9z"/>
<path class="st0" d="M179.9,171.8v-32.4h58.2L179.9,32.6V0l-8.3,0v171.8H179.9z M179.8,49.8l42.4,80.8l-42.2,0.2L179.8,49.8z"/>
<g>
	<path d="M119.1,133.2c-26.1,0-47.3-21.2-47.3-47.3c0-26.1,21.2-47.3,47.3-47.3c26.1,0,47.3,21.2,47.3,47.3
		C166.4,112,145.1,133.2,119.1,133.2z M119.1,46.6c-21.7,0-39.3,17.6-39.3,39.3c0,21.7,17.6,39.3,39.3,39.3
		c21.7,0,39.3-17.6,39.3-39.3C158.4,64.2,140.7,46.6,119.1,46.6z"/>
</g>
</svg>
