<?xml version="1.0" encoding="utf-8"?>
<!-- Generator: Adobe Illustrator 25.2.1, SVG Export Plug-In . SVG Version: 6.00 Build 0)  -->
<svg version="1.1" id="Layer_1" xmlns="http://www.w3.org/2000/svg" xmlns:xlink="http://www.w3.org/1999/xlink" x="0px" y="0px"
	 viewBox="0 0 100 100" style="enable-background:new 0 0 100 100;" xml:space="preserve">
<style type="text/css">
	.st0{fill:#1C7AB5;}
</style>
<circle cx="46.9" cy="50" r="4.7"/>
<path d="M81.2,0H12.5C7.3,0,3.1,4.2,3.1,9.4v81.2c0,5.2,4.2,9.4,9.4,9.4l0,0h68.8c3.1,0,6.1-1.6,7.8-4.2V4.2C87.3,1.6,84.4,0,81.2,0
	z M59.4,54.7c2.6,0,4.7-2.1,4.7-4.7c0-9.5-7.7-17.2-17.2-17.2c-9.5,0-17.2,7.7-17.2,17.2c0,9.5,7.7,17.2,17.2,17.2
	c3,0,6-0.8,8.6-2.3c0.8-0.4,1.7-0.1,2.1,0.6c0.4,0.7,0.2,1.7-0.5,2.1c0,0,0,0,0,0c-9.7,5.6-22.2,2.3-27.8-7.4S26.9,38,36.7,32.4
	s22.2-2.3,27.8,7.4c1.8,3.1,2.7,6.6,2.7,10.2c0,4.3-3.5,7.8-7.8,7.8c-2.5,0-4.8-1.2-6.2-3.1c-2.6,3.5-7.5,4.2-10.9,1.6
	s-4.2-7.5-1.6-10.9s7.5-4.2,10.9-1.6c0-0.9,0.7-1.6,1.6-1.6s1.6,0.7,1.6,1.6V50C54.7,52.6,56.8,54.7,59.4,54.7z"/>
<path class="st0" d="M96.9,15.6v12.5c0,1.7-1.4,3.1-3.1,3.1h-1.6V12.5h1.6C95.5,12.5,96.9,13.9,96.9,15.6z"/>
<path class="st0" d="M96.9,40.6v18.8c0,1.7-1.4,3.1-3.1,3.1h-1.6v-25h1.6C95.5,37.5,96.9,38.9,96.9,40.6z"/>
<path d="M96.9,71.9v12.5c0,1.7-1.4,3.1-3.1,3.1h-1.6V68.8h1.6C95.5,68.8,96.9,70.1,96.9,71.9z"/>
</svg>
