<?xml version="1.0" encoding="utf-8"?>
<!-- Generator: Adobe Illustrator 25.2.1, SVG Export Plug-In . SVG Version: 6.00 Build 0)  -->
<svg version="1.1" id="Layer_1" xmlns="http://www.w3.org/2000/svg" xmlns:xlink="http://www.w3.org/1999/xlink" x="0px" y="0px"
	 viewBox="0 0 100 100" style="enable-background:new 0 0 100 100;" xml:space="preserve">
<style type="text/css">
	.st0{fill:#1C7AB5;}
</style>
<desc>Created with Sketch.</desc>
<path d="M50,24.6c-1.8,0-3.3-1.5-3.3-3.3c0-1.8,1.5-3.3,3.3-3.3c1.8,0,3.3,1.5,3.3,3.3C53.3,23.1,51.8,24.6,50,24.6 M50,13.1
	c-4.6,0-8.2,3.6-8.2,8.2s3.6,8.2,8.2,8.2s8.2-3.6,8.2-8.2S54.6,13.1,50,13.1"/>
<path d="M79.5,24.6c-1.8,0-3.3-1.5-3.3-3.3c0-1.8,1.5-3.3,3.3-3.3s3.3,1.5,3.3,3.3C82.8,23.1,81.3,24.6,79.5,24.6 M79.5,13.1
	c-4.6,0-8.2,3.6-8.2,8.2s3.6,8.2,8.2,8.2s8.2-3.6,8.2-8.2S84.1,13.1,79.5,13.1"/>
<path d="M20.5,24.6c-1.8,0-3.3-1.5-3.3-3.3c0-1.8,1.5-3.3,3.3-3.3s3.3,1.5,3.3,3.3C23.8,23.1,22.3,24.6,20.5,24.6 M20.5,13.1
	c-4.6,0-8.2,3.6-8.2,8.2s3.6,8.2,8.2,8.2s8.2-3.6,8.2-8.2S25.1,13.1,20.5,13.1"/>
<path d="M92.6,8.2c-1,0-1.6-0.7-1.6-1.6s0.7-1.6,1.6-1.6s1.6,0.7,1.6,1.6S93.6,8.2,92.6,8.2 M92.6,37.7c-1,0-1.6-0.7-1.6-1.6
	c0-1,0.7-1.6,1.6-1.6s1.6,0.7,1.6,1.6C94.3,37,93.6,37.7,92.6,37.7 M79.5,32.8c-6.4,0-11.5-5.1-11.5-11.5S73.1,9.8,79.5,9.8
	S91,14.9,91,21.3S85.9,32.8,79.5,32.8 M50,32.8c-6.4,0-11.5-5.1-11.5-11.5S43.6,9.8,50,9.8s11.5,5.1,11.5,11.5S56.4,32.8,50,32.8
	 M20.5,32.8C14.1,32.8,9,27.7,9,21.3S14.1,9.8,20.5,9.8S32,14.9,32,21.3S26.9,32.8,20.5,32.8 M7.4,37.7c-1,0-1.6-0.7-1.6-1.6
	c0-1,0.7-1.6,1.6-1.6S9,35.1,9,36.1C9,37,8.4,37.7,7.4,37.7 M7.4,4.9c1,0,1.6,0.7,1.6,1.6S8.4,8.2,7.4,8.2S5.7,7.5,5.7,6.6
	S6.4,4.9,7.4,4.9 M94.3,0H5.7C3,0,0.8,2.1,0.8,4.9v32.8c0,2.8,2.1,4.9,4.9,4.9h88.5c2.8,0,4.9-2.1,4.9-4.9V4.9C99.2,2.1,97,0,94.3,0
	"/>
<path d="M87.7,77v-3.3c0-1-0.7-1.6-1.6-1.6v-6.6H73v6.6c-1,0-1.6,0.7-1.6,1.6V77c-1,0-1.6,0.7-1.6,1.6v11.5c0,1,0.7,1.6,1.6,1.6v4.9
	c0,1,0.7,1.6,1.6,1.6h13.1c1,0,1.6-0.7,1.6-1.6v-4.9c1,0,1.6-0.7,1.6-1.6V78.7C89.3,77.9,88.7,77,87.7,77z M84.4,95.1h-9.8v-3.3h9.8
	V95.1z M84.4,77h-9.8v-1.6h9.8V77z"/>
<path d="M73.6,55.7c1,2.1,1.1,4.4,0,6.6h11.6c-1-2.1-1-4.4,0-6.6H73.6z"/>
<path d="M82.6,46.9c-0.3-0.7-0.8-1-1.5-1h-3.3c-0.7,0-1.1,0.3-1.5,1l-2.8,5.6h11.8L82.6,46.9z"/>
<path class="st0" d="M53.1,46.9c-0.3-0.7-0.8-1-1.5-1h-3.3c-0.7,0-1.1,0.3-1.5,1l-2.8,5.6h11.8L53.1,46.9z"/>
<path class="st0" d="M44.1,55.7c1,2.1,1.1,4.4,0,6.6h11.6c-1-2.1-1-4.4,0-6.6H44.1z"/>
<path class="st0" d="M58.2,77v-3.3c0-1-0.7-1.6-1.6-1.6v-6.6H43.4v6.6c-1,0-1.6,0.7-1.6,1.6V77c-1,0-1.6,0.7-1.6,1.6v11.5
	c0,1,0.7,1.6,1.6,1.6v4.9c0,1,0.7,1.6,1.6,1.6h13.1c1,0,1.6-0.7,1.6-1.6v-4.9c1,0,1.6-0.7,1.6-1.6V78.7C59.8,77.9,59.2,77,58.2,77z
	 M54.9,95.1h-9.8v-3.3h9.8V95.1z M54.9,77h-9.8v-1.6h9.8V77z"/>
<path d="M14.6,55.7c1,2.1,1.1,4.4,0,6.6h11.6c-1-2.1-1-4.4,0-6.6H14.6z"/>
<path d="M28.7,77v-3.3c0-1-0.7-1.6-1.6-1.6v-6.6H13.9v6.6c-1,0-1.6,0.7-1.6,1.6V77c-1,0-1.6,0.7-1.6,1.6v11.5c0,1,0.7,1.6,1.6,1.6
	v4.9c0,1,0.7,1.6,1.6,1.6H27c1,0,1.6-0.7,1.6-1.6v-4.9c1,0,1.6-0.7,1.6-1.6V78.7C30.3,77.9,29.7,77,28.7,77z M25.4,95.1h-9.8v-3.3
	h9.8V95.1z M25.4,77h-9.8v-1.6h9.8V77z"/>
<path d="M23.6,46.9c-0.3-0.7-0.8-1-1.5-1h-3.3c-0.7,0-1.1,0.3-1.5,1l-2.8,5.6h11.8L23.6,46.9z"/>
</svg>
