<svg height='100px' width='100px'  fill="#1c7ab5" xmlns:x="http://ns.adobe.com/Extensibility/1.0/" xmlns:i="http://ns.adobe.com/AdobeIllustrator/10.0/" xmlns:graph="http://ns.adobe.com/Graphs/1.0/" xmlns="http://www.w3.org/2000/svg" xmlns:xlink="http://www.w3.org/1999/xlink" version="1.1" x="0px" y="0px" viewBox="0 0 100 100" style="enable-background:new 0 0 100 100;" xml:space="preserve"><g><g i:extraneous="self"><g><path d="M94.8,48.4c-1.6,0.7-3.3,1-5.1,1c-5.8,0-10.8-3.7-12.7-8.8c-2.2,1.8-5,3-8,3c-6.9,0-12.5-5.6-12.5-12.5     c0-2.8,0.9-5.3,2.4-7.3c-4.3-1.8-7.3-6.1-7.3-11c0-2.6,0.9-5,2.3-7c-1.6-0.5-3.3-0.8-5.1-0.8c-4.3,0-8.3,1.7-11.2,4.5     c-3.9-0.9-8.2-0.4-11.9,1.7s-6.3,5.6-7.5,9.5c-3.9,1.2-7.3,3.7-9.5,7.5C6.6,31.8,6.1,36.1,7,40c-2.8,2.9-4.5,6.9-4.5,11.2     S4.2,59.5,7,62.4c-0.9,3.9-0.4,8.2,1.7,11.9c2.2,3.8,5.6,6.3,9.5,7.5c1.2,3.9,3.7,7.3,7.5,9.5s8,2.7,11.9,1.7     c2.9,2.8,6.9,4.5,11.2,4.5c4.3,0,8.3-1.7,11.2-4.5c3.9,0.9,8.2,0.4,11.9-1.7s6.3-5.6,7.5-9.5c3.9-1.2,7.3-3.7,9.5-7.5     c2.2-3.8,2.7-8,1.7-11.9c2.8-2.9,4.5-6.9,4.5-11.2C95.1,50.2,95,49.3,94.8,48.4z M23.5,62.4c-3.1,0-5.7-2.5-5.7-5.7     c0-3.1,2.5-5.7,5.7-5.7c3.1,0,5.7,2.5,5.7,5.7C29.2,59.9,26.6,62.4,23.5,62.4z M34.2,37.7c-3.1,0-5.6-2.5-5.6-5.6     c0-3.1,2.5-5.6,5.6-5.6s5.6,2.5,5.6,5.6C39.8,35.2,37.3,37.7,34.2,37.7z M46.4,81.2c-2.9,0-5.2-2.3-5.2-5.2s2.3-5.2,5.2-5.2     c2.9,0,5.2,2.3,5.2,5.2S49.3,81.2,46.4,81.2z M48.8,57.3c-2.6,0-4.7-2.1-4.7-4.7c0-2.6,2.1-4.7,4.7-4.7c2.6,0,4.7,2.1,4.7,4.7     C53.5,55.2,51.4,57.3,48.8,57.3z M70,69.8c-3.1,0-5.6-2.5-5.6-5.6c0-3.1,2.5-5.6,5.6-5.6c3.1,0,5.6,2.5,5.6,5.6     C75.5,67.3,73,69.8,70,69.8z"></path><path d="M73.1,32.4c3.1,0,5.6-2.5,5.6-5.6c0-3.1-2.5-5.6-5.6-5.6c-3.1,0-5.6,2.5-5.6,5.6C67.4,29.9,69.9,32.4,73.1,32.4z"></path><path d="M77,13.8c3.1,0,5.6-2.5,5.6-5.6S80.1,2.5,77,2.5c-3.1,0-5.6,2.5-5.6,5.6S73.9,13.8,77,13.8z"></path><circle cx="91.8" cy="28.3" r="5.6"></circle></g></g></g></svg>