<?xml version="1.0" encoding="utf-8"?>
<!-- Generator: Adobe Illustrator 25.2.1, SVG Export Plug-In . SVG Version: 6.00 Build 0)  -->
<svg version="1.1"
	 id="Layer_1" xmlns:cc="http://creativecommons.org/ns#" xmlns:dc="http://purl.org/dc/elements/1.1/" xmlns:inkscape="http://www.inkscape.org/namespaces/inkscape" xmlns:rdf="http://www.w3.org/1999/02/22-rdf-syntax-ns#" xmlns:sodipodi="http://sodipodi.sourceforge.net/DTD/sodipodi-0.dtd" xmlns:svg="http://www.w3.org/2000/svg"
	 xmlns="http://www.w3.org/2000/svg" xmlns:xlink="http://www.w3.org/1999/xlink" x="0px" y="0px" viewBox="0 0 100 100"
	 style="enable-background:new 0 0 100 100;" xml:space="preserve">
<style type="text/css">
	.st0{fill:#1C7AB5;}
</style>
<g transform="translate(0,-952.36218)">
	<path d="M11,967.4c-2.8,0-5,2.2-5,5v14v22v18c0,2.8,2.2,5,5,5h55.2c-1.4-2.4-2.2-5.1-2.2-8c0-8.8,7.2-16,16-16c2.9,0,5.6,0.8,8,2.2
		v-21.2c0-2.8-2.2-5-5-5H49l-6-11c-1.3-2.4-3.2-5-6-5L11,967.4L11,967.4z"/>
	<path class="st0" d="M46.7,975.4l3.3,6h33c1.8,0,3.8,1,5,2.4v-1.4c0-3.7-3.3-7-7-7H46.7z"/>
	<path class="st0" d="M80,1009.4c-7.7,0-14,6.3-14,14c0,7.7,6.3,14,14,14s14-6.3,14-14C94,1015.6,87.7,1009.4,80,1009.4z
		 M86.4,1026.8c-1.7,1.6-3.3,3.5-5,4.9c-0.4,0.4-0.9,0.7-1.4,0.7s-1.1-0.3-1.4-0.7c-1.6-1.5-3.3-3.3-5-4.9c-0.8-0.8-0.8-2,0-2.8
		c0.8-0.8,2-0.8,2.8,0l1.6,1.6v-9.2c0-1.1,0.9-2,2-2v0c1.1,0,2,0.9,2,2v9.2l1.6-1.6c0.8-0.8,2-0.8,2.8,0
		C87.2,1024.7,87.2,1026,86.4,1026.8z"/>
</g>
</svg>
