<?xml version="1.0" encoding="utf-8"?>
<!-- Generator: Adobe Illustrator 25.2.1, SVG Export Plug-In . SVG Version: 6.00 Build 0)  -->
<svg version="1.1" id="Layer_1" xmlns="http://www.w3.org/2000/svg" xmlns:xlink="http://www.w3.org/1999/xlink" x="0px" y="0px"
	 viewBox="0 0 100 100" style="enable-background:new 0 0 100 100;" xml:space="preserve">
<style type="text/css">
	.st0{fill:#1C7AB5;}
</style>
<g>
	<path class="st0" d="M36.4,40.2c0.3,1.2,0.8,2.3,1.4,3.4c0.6,1,1.3,2,2.2,2.9c0.9,0.9,1.8,1.6,2.9,2.2c1,0.6,2.2,1.1,3.4,1.4
		s2.4,0.5,3.8,0.5s2.7-0.2,3.8-0.5c1.2-0.4,2.4-0.9,3.4-1.5l0.4-0.2l-1.7-2.9l-0.4,0.2c-0.9,0.5-1.7,0.9-2.7,1.2
		c-1.9,0.5-3.9,0.5-5.8,0c-0.9-0.2-1.8-0.6-2.6-1.1c-0.8-0.5-1.6-1-2.2-1.7c-0.6-0.6-1.2-1.4-1.7-2.2c-0.3-0.6-0.6-1.2-0.9-2
		c-0.1-0.2-0.2-0.4-0.2-0.5c-0.2-0.9-0.4-1.9-0.4-2.9c0-1,0.2-2,0.4-2.8c0.2-0.9,0.6-1.8,1.1-2.6c0.3-0.5,0.7-1,1.1-1.5
		c0.2-0.2,0.4-0.5,0.6-0.7c0.6-0.6,1.2-1.2,2-1.6c0.1,0,0.1-0.1,0.2-0.1c0.8-0.5,1.6-0.9,2.6-1.1c1.6-0.5,3.5-0.5,5.2-0.2
		c0.2,0,0.4,0.1,0.5,0.2c0.9,0.2,1.8,0.5,2.6,1c0.8,0.5,1.6,1,2.2,1.6c0.6,0.6,1.2,1.2,1.6,2c0.5,0.7,0.9,1.6,1.1,2.3
		c0.2,0.9,0.4,1.7,0.4,2.6c0,0.8-0.1,1.5-0.2,2c-0.1,0.5-0.3,1-0.5,1.5c-0.2,0.5-0.5,0.9-0.9,1.2s-0.9,0.5-1.4,0.5
		c-0.2,0-0.5-0.1-0.6-0.2c-0.2-0.1-0.3-0.2-0.4-0.5c-0.1-0.2-0.2-0.5-0.2-1v-9.4h-3.5v0.9c-0.2-0.2-0.5-0.2-0.8-0.3
		c-0.2,0-0.2-0.1-0.4-0.2c-1.6-0.5-3.4-0.4-4.8,0.2c-0.2,0.1-0.2,0.2-0.4,0.2c-0.7,0.3-1.3,0.8-1.9,1.3c-0.3,0.3-0.5,0.6-0.8,0.9
		c-0.3,0.4-0.5,0.8-0.7,1.2c-0.4,0.9-0.5,1.7-0.5,2.7s0.2,1.9,0.5,2.7c0.1,0.2,0.2,0.4,0.3,0.5c0.3,0.6,0.7,1.2,1.2,1.6
		c0.6,0.6,1.4,1.1,2.2,1.5c1.6,0.7,3.6,0.7,5.3,0.2c0.6-0.2,1.2-0.5,1.7-0.9c0.3,0.5,0.7,0.9,1.2,1.2c0.3,0.2,0.6,0.3,1,0.5
		c0.4,0.1,0.9,0.2,1.2,0.2c0.7,0,1.3-0.2,2-0.4c0.5-0.2,1.1-0.5,1.6-0.9c0.5-0.4,0.9-0.9,1.2-1.4c0.4-0.5,0.6-1.1,0.9-1.7
		c0.2-0.6,0.5-1.2,0.5-1.9c0.2-0.6,0.2-1.3,0.2-2c0-1.2-0.2-2.4-0.5-3.5S62.9,30,62.3,29c-0.6-1-1.3-1.9-2.2-2.7
		c-0.9-0.9-1.8-1.6-2.9-2.1c-1-0.5-2.2-1-3.4-1.3c-0.5-0.2-0.9-0.2-1.4-0.3c-2-0.3-4.1-0.2-6.1,0.3c-1.2,0.3-2.3,0.8-3.4,1.4
		c-0.2,0.1-0.3,0.2-0.5,0.3c-0.9,0.5-1.6,1.2-2.3,1.9c-0.1,0.1-0.2,0.2-0.3,0.3c-0.7,0.8-1.4,1.6-2,2.6c-0.6,1-1.1,2.2-1.4,3.4
		S36,35.1,36,36.4c0,1.2,0.2,2.3,0.4,3.4C36.3,39.9,36.3,40.1,36.4,40.2z M53.1,38.2C53,38.4,53,38.4,53,38.5
		c-0.3,0.4-0.6,0.7-1,0.9c-0.5,0.3-1.2,0.5-2,0.5c-0.1,0-0.2,0-0.2,0c-0.4,0-0.8-0.1-1.2-0.2c-0.1,0-0.1,0-0.2-0.1
		c-0.5-0.2-0.9-0.5-1.2-0.7c-0.3-0.3-0.5-0.7-0.7-1.1s-0.2-0.9-0.2-1.3c0-0.3,0-0.6,0.2-0.9c0-0.2,0.1-0.3,0.2-0.4
		c0.2-0.5,0.5-0.8,0.8-1.1s0.7-0.5,1.2-0.8c0.2-0.1,0.3-0.1,0.4-0.2c0.3-0.1,0.7-0.2,1-0.2c0.4,0,0.7,0,1,0.2
		c0.3,0.1,0.6,0.2,0.9,0.4c0.2,0.1,0.3,0.2,0.5,0.3c0.1,0.1,0.2,0.2,0.3,0.3c0.2,0.2,0.4,0.5,0.5,0.7L53.1,38.2L53.1,38.2z"/>
	<path d="M94.8,45.3c0-3.9-1.3-7-4.1-9.2c-1.2-0.9-14.1-12.2-26.6-23h0.2l-4.8-4.2c-2.7-2.3-5.2-4.6-7.8-6.9c-0.5-0.4-1-0.7-1.6-0.8
		H50h-0.2c-0.5,0.1-1.1,0.4-1.6,0.8c-2.6,2.3-12.4,11.1-12.4,11.1c-12.3,10.8-25.4,22-26.6,23c-2.8,2.3-4.1,5.2-4.1,9.2
		c0.1,10.5,0,21.3,0,31.7c0,3.8,0,7.6,0,11.3c0,3.1,1,5.8,2.8,7.6c1.9,1.9,4.5,2.8,7.6,2.8l0,0h68.7l0,0c3.1,0,5.8-1,7.6-2.8
		c1.9-1.9,2.8-4.5,2.8-7.6c0-3.8,0-7.6,0-11.3C94.8,66.6,94.8,55.9,94.8,45.3L94.8,45.3z M12,40.6c0.6-0.5,38-33.1,38-33.1
		s0.5,0.5,0.8,0.7c0.9,0.8,1.8,1.5,2.7,2.3c0.2,0.2,0.3,0.5,0.6,0.7c0.6,0.5,8.6,7.4,17,14.8c8,7,16.3,14.1,17,14.7l0.1,0.1
		L65.5,60.1c-1.2,1.1-3.7,3.1-5.5,4.8c-2.3-2-4.8-4.1-7.1-6.2c-0.2-0.2-0.5-0.4-0.7-0.6c-0.6-0.5-1.2-0.9-2-0.9
		c-0.8-0.1-1.4,0.4-2,0.9c-0.2,0.2-0.5,0.4-0.7,0.6c-2.3,2-4.8,4.1-7.1,6.2c-2-1.6-4.3-3.8-5.5-4.8L12,40.6C12,40.7,12,40.7,12,40.6
		z M89.5,76.5c0,4,0,8,0,12l0,0c0,3.2-1.8,5.1-5,5.1c-11.5,0-23,0-34.5,0s-23,0-34.5,0c-3.2,0-5-1.9-5-5.1c0-3.9,0-7.8,0-11.8
		c0-10.3,0-20.9,0-31.4c4.4,3.8,11.9,10.2,13.4,11.5c1.3,1.2,2.7,2.3,4,3.4c2,1.7,5.1,4.4,7.7,6.7l1.1,0.9c-4.4,3.8-8.7,7.5-13,11.2
		L22.6,80c-1.5,1.2-3,2.6-4.5,3.8c-1.1,0.9-1.2,2.3-0.5,3.3c0.9,1,2.2,1.1,3.4,0.2c0.1-0.1,0.2-0.2,0.3-0.2l28.4-24.6l0.2,0.2
		l0.2-0.2L78.6,87c0.1,0.1,0.2,0.2,0.3,0.2c0.5,0.5,1.2,0.6,1.7,0.6c0.6,0,1.2-0.3,1.6-0.9c0.8-1,0.6-2.3-0.5-3.3
		c-1.5-1.2-3-2.6-4.5-3.8L76.3,79c-4.4-3.8-8.7-7.5-13-11.3l1.2-1.1c2.7-2.3,5.6-4.8,7.6-6.6c1.3-1.2,2.7-2.3,4-3.4
		c1.6-1.4,9.5-8,13.4-11.4C89.5,55.7,89.5,66.2,89.5,76.5z"/>
</g>
</svg>
