<?xml version="1.0" encoding="utf-8"?>
<!-- Generator: Adobe Illustrator 25.2.1, SVG Export Plug-In . SVG Version: 6.00 Build 0)  -->
<svg version="1.1" id="Layer_1" xmlns="http://www.w3.org/2000/svg" xmlns:xlink="http://www.w3.org/1999/xlink" x="0px" y="0px"
	 viewBox="0 0 100 100" style="enable-background:new 0 0 100 100;" xml:space="preserve">
<style type="text/css">
	.st0{fill:#FFFFFF;}
	.st1{fill:#1C7AB5;}
</style>
<path d="M75.7,5.5C75.3,5.2,74.9,5,74.4,5h-62c-1,0-1.8,0.8-1.8,1.8c0,0,0,0,0,0v86.4c0,1,0.8,1.8,1.8,1.8c0,0,0,0,0,0h75.2
	c1,0,1.8-0.8,1.8-1.8c0,0,0,0,0,0V20c0-0.5-0.2-0.9-0.5-1.3L75.7,5.5z"/>
<path class="st0" d="M14.2,91.4V8.6h58.4v12.5c0,0.4,0.3,0.7,0.7,0.7h12.5v69.6H14.2z"/>
<path class="st1" d="M36,28.7v10.7c0,0.4-0.3,0.7-0.7,0.7c0,0,0,0,0,0H24.6c-0.4,0-0.7-0.3-0.7-0.7c0,0,0,0,0,0V28.7
	c0-0.4,0.3-0.7,0.7-0.7c0,0,0,0,0,0h10.7C35.7,27.9,36,28.3,36,28.7C36,28.7,36,28.7,36,28.7z"/>
<path d="M76.1,38c0,1-0.8,1.8-1.8,1.8c0,0,0,0,0,0H45c-1,0-1.8-0.8-1.8-1.8s0.8-1.8,1.8-1.8l0,0h29.3C75.3,36.2,76.1,37,76.1,38
	C76.1,38,76.1,38,76.1,38z"/>
<path d="M43.2,30c0-1,0.8-1.8,1.8-1.8c0,0,0,0,0,0h19.9c1,0,1.8,0.8,1.8,1.8c0,1-0.8,1.8-1.8,1.8c0,0,0,0,0,0H45
	C44,31.8,43.2,31,43.2,30C43.2,30,43.2,30,43.2,30z"/>
<path d="M36,50.2v10.7c0,0.4-0.3,0.7-0.7,0.7c0,0,0,0,0,0H24.6c-0.4,0-0.7-0.3-0.7-0.7c0,0,0,0,0,0V50.2c0-0.4,0.3-0.7,0.7-0.7
	c0,0,0,0,0,0h10.7C35.7,49.4,36,49.8,36,50.2C36,50.2,36,50.2,36,50.2z"/>
<path class="st1" d="M76.1,59.5c0,1-0.8,1.8-1.8,1.8c0,0,0,0,0,0H45c-1,0-1.8-0.8-1.8-1.8s0.8-1.8,1.8-1.8l0,0h29.3
	C75.3,57.7,76.1,58.5,76.1,59.5C76.1,59.5,76.1,59.5,76.1,59.5z"/>
<path d="M43.2,51.5c0-1,0.8-1.8,1.8-1.8c0,0,0,0,0,0h19.9c1,0,1.8,0.8,1.8,1.8s-0.8,1.8-1.8,1.8H45C44,53.3,43.2,52.5,43.2,51.5
	C43.2,51.5,43.2,51.5,43.2,51.5z"/>
<path d="M36,71.7v10.7c0,0.4-0.3,0.7-0.7,0.7h0H24.6c-0.4,0-0.7-0.3-0.7-0.7v0V71.7c0-0.4,0.3-0.7,0.7-0.7c0,0,0,0,0,0h10.7
	C35.7,70.9,36,71.3,36,71.7C36,71.7,36,71.7,36,71.7z"/>
<path d="M76.1,81c0,1-0.8,1.8-1.8,1.8c0,0,0,0,0,0H45c-1,0-1.8-0.8-1.8-1.8c0-1,0.8-1.8,1.8-1.8l0,0h29.3C75.3,79.2,76.1,80,76.1,81
	C76.1,81,76.1,81,76.1,81z"/>
<path class="st1" d="M43.2,73c0-1,0.8-1.8,1.8-1.8c0,0,0,0,0,0h19.9c1,0,1.8,0.8,1.8,1.8c0,1-0.8,1.8-1.8,1.8H45
	C44,74.8,43.2,74,43.2,73C43.2,73,43.2,73,43.2,73z"/>
</svg>
