<?xml version="1.0" encoding="utf-8"?>
<!-- Generator: Adobe Illustrator 25.2.1, SVG Export Plug-In . SVG Version: 6.00 Build 0)  -->
<svg version="1.1" id="Layer_1" xmlns="http://www.w3.org/2000/svg" xmlns:xlink="http://www.w3.org/1999/xlink" x="0px" y="0px"
	 viewBox="0 0 100 100" style="enable-background:new 0 0 100 100;" xml:space="preserve">
<style type="text/css">
	.st0{fill:#1C7AB5;}
</style>
<rect x="22.7" y="22.2" class="st0" width="13.6" height="1.1"/>
<rect x="22.7" y="26.7" class="st0" width="22.7" height="1.1"/>
<rect x="22.7" y="35.2" width="22.7" height="2.3"/>
<rect x="22.7" y="58" width="18.2" height="2.3"/>
<rect x="27.3" y="44.9" width="31.8" height="1.1"/>
<path d="M59.1,9.1H22.7v9.1h36.4V9.1z M58,17H23.9v-6.8H58V17z"/>
<path d="M85.2,0H14.8c-0.6,0-1.1,0.5-1.1,1.1v97.7c0,0.6,0.5,1.1,1.1,1.1h70.5c0.6,0,1.1-0.5,1.1-1.1V1.1C86.4,0.5,85.9,0,85.2,0z
	 M84.1,97.7H15.9V2.3h68.2V97.7z"/>
<circle cx="23.9" cy="45.5" r="1.1"/>
<circle cx="23.9" cy="50" r="1.1"/>
<circle class="st0" cx="23.9" cy="68.2" r="1.1"/>
<circle cx="23.9" cy="72.7" r="1.1"/>
<circle class="st0" cx="23.9" cy="90.9" r="1.1"/>
<rect x="27.3" y="49.4" width="22.7" height="1.1"/>
<rect x="54.5" y="49.4" width="13.6" height="1.1"/>
<rect x="27.3" y="67.6" class="st0" width="45.5" height="1.1"/>
<rect x="22.7" y="80.7" width="27.3" height="2.3"/>
<rect x="27.3" y="90.3" class="st0" width="36.4" height="1.1"/>
<rect x="27.3" y="72.2" width="18.2" height="1.1"/>
<rect x="50" y="72.2" width="13.6" height="1.1"/>
</svg>
