<?xml version="1.0" encoding="utf-8"?>
<!-- Generator: Adobe Illustrator 25.2.1, SVG Export Plug-In . SVG Version: 6.00 Build 0)  -->
<svg version="1.1" id="Layer_1" xmlns="http://www.w3.org/2000/svg" xmlns:xlink="http://www.w3.org/1999/xlink" x="0px" y="0px"
	 viewBox="0 0 100 100" style="enable-background:new 0 0 100 100;" xml:space="preserve">
<style type="text/css">
	.st0{fill:#1C7AB5;}
</style>
<path d="M85.2,0H14.8c-0.6,0-1.1,0.5-1.1,1.1v97.7c0,0.6,0.5,1.1,1.1,1.1h70.5c0.6,0,1.1-0.5,1.1-1.1V1.1C86.4,0.5,85.9,0,85.2,0z
	 M84.1,97.7H15.9V2.3h68.2V97.7z"/>
<path class="st0" d="M28,81.8c1-1.2,1.9-2.9,3.1-3.9c0.5-0.4-0.3,0.5-0.4,0.8c-0.3,0.7-0.7,1.5-0.9,2.2c-0.3,0.9-0.4,1.6-0.3,2.5
	c0,0.2,0.1,0.3,0.3,0.3c1.2,0.1,0.2-0.1,1.3-0.2c0.2-0.1,0.4-0.2,0.6-0.3c0.9-0.2,1.7,0,2.3,0.5c0.8,0.2,0.8,0.6,1.7,0.6
	c1.2-0.1,2-0.7,3.2-0.7c1,0,2,0.2,3,0.3c2.4,0.1,4.8-0.3,7.2-0.5c0.5,0,0.5-0.8,0-0.8c-2.7,0-5.5,0.6-8.2,0.4
	c-1-0.1-2.1-0.3-3.1-0.1c-1.6,0.3-2.3,0.5-4-0.2c-1.1-0.4-1.2-0.2-2.2-0.2c-2.1,0-1.2-1.4-0.6-2.8c0.3-0.8,0.5-1.5,0.7-2.3
	c0-0.2-0.3-0.3-0.5-0.2c-1.1,1.1-2,2.5-2.9,3.7c-1,1.2-3.5,5.3-5.5,4.7c-0.1,0-0.2,0.1-0.1,0.2C24.7,86.5,27,83,28,81.8z"/>
<rect x="22.7" y="90.3" width="13.6" height="1.1"/>
<rect x="63.6" y="90.3" width="13.6" height="1.1"/>
<path class="st0" d="M77.3,9.1H22.7v9.1h54.5V9.1z M76.1,17H23.9v-6.8h52.3V17z"/>
<rect x="36.4" y="22.2" width="27.3" height="1.1"/>
<rect x="22.7" y="35.8" width="54.5" height="1.1"/>
<rect x="22.7" y="44.9" width="54.5" height="1.1"/>
<rect x="22.7" y="40.3" width="54.5" height="1.1"/>
<rect x="22.7" y="49.4" width="54.5" height="1.1"/>
<rect x="22.7" y="58.5" width="54.5" height="1.1"/>
<rect x="22.7" y="63.1" width="45.5" height="1.1"/>
<rect x="22.7" y="67.6" width="31.8" height="1.1"/>
<path class="st0" d="M76.6,83.7c0-0.2-0.1-0.3-0.3-0.3c-1.1-0.1-0.7-0.2-1.7,0.2c-0.1,0-0.1,0.1-0.2,0.2c-1.3,0.2-2.6,0.3-3.8,1.1
	c-0.2,0.1-0.2,0.3-0.1,0.5c-0.9-0.1-1.6-0.6-2.5-0.6c0.1,0-1.1,0.2-0.8,0.3c-0.9-0.4-0.6-2.1-0.7-3c0-0.3-0.4-0.5-0.6-0.2
	c-0.4,0.7-0.3,0.6-0.6,1.4c-0.2,0.8,0.1,1.7-0.9,1.2c-0.8-0.4-0.7-5.1-0.8-6.2c0-0.3-0.5-0.4-0.5-0.1c-0.2,1.1-0.3,2.1-0.4,3.2
	c-0.1,0.7-0.5,4.6-1.3,4.7c0,0,0-0.1,0-0.1c-0.2,0-0.2,0-0.4,0.1c0,0,0,0,0,0.1c0,0.1,0.1,0.2,0.1,0.3c0,0.1,0.2,0.2,0.3,0.1
	c1.2-1.4,1.7-3.4,1.9-5.3c0.1,0.5,0.1,1,0.2,1.5c0.2,1.3,0.5,2.4,1,3.5c0.1,0.2,0.4,0.2,0.5,0c0.5-0.9,0.7-2,1-3
	c0.1,0.9,0.3,1.8,0.5,2.7c0.1,0.2,0.4,0.3,0.5,0.1c1-1,2-0.2,3.1-0.1c1.2,0.1,2.4-0.1,3.5-0.2c0.5,0,0.5-0.8,0-0.7
	c-0.6,0.1-1.1,0.1-1.6,0c1.1-0.4,2.3-0.5,3.4-0.7c0.6,0,1.2,0,1.8,0c0.4,0,0.4-0.6,0-0.6C77,83.7,76.8,83.7,76.6,83.7z"/>
</svg>
