<?xml version="1.0" encoding="utf-8"?>
<!-- Generator: Adobe Illustrator 25.2.1, SVG Export Plug-In . SVG Version: 6.00 Build 0)  -->
<svg version="1.1" id="Layer_1" xmlns="http://www.w3.org/2000/svg" xmlns:xlink="http://www.w3.org/1999/xlink" x="0px" y="0px"
	 viewBox="0 0 100 100" style="enable-background:new 0 0 100 100;" xml:space="preserve">
<style type="text/css">
	.st0{fill:#1C7AB5;}
</style>
<g>
	<g>
		<path d="M15.6,79.5c0,0.6,0.4,1.2,0.9,1.4l31.9,14.5V57L15.6,42.1V79.5z M25,62c0-0.5,0.3-1,0.7-1.3c0.5-0.3,1-0.3,1.5-0.1
			l9.4,4.3c0.6,0.2,0.9,0.8,0.9,1.4v8.6c0,0.5-0.3,1-0.7,1.3c-0.3,0.2-0.5,0.2-0.8,0.2c-0.2,0-0.5,0-0.7-0.1L25.9,72
			c-0.6-0.2-0.9-0.8-0.9-1.4V62z"/>
		<path d="M51.6,57v38.4l31.9-14.5c0.6-0.3,0.9-0.8,0.9-1.4V42.1L51.6,57z M75,70.6c0,0.6-0.4,1.2-0.9,1.4l-9.4,4.3
			c-0.2,0.1-0.4,0.1-0.7,0.1c-0.3,0-0.6-0.1-0.8-0.2c-0.4-0.3-0.7-0.8-0.7-1.3v-8.6c0-0.6,0.4-1.2,0.9-1.4l9.4-4.3
			c0.5-0.2,1-0.2,1.5,0.1C74.8,61,75,61.5,75,62V70.6z"/>
		<path d="M83.3,39.1l-13-5.9v4.2c0,2.6-2.1,4.7-4.7,4.7h-9.4c-2.6,0-4.7-2.1-4.7-4.7v-1.6l-7.9,6.8c-0.8,0.7-1.9,1.1-3,1.1
			s-2.2-0.4-3.1-1.1l-9.8-8.4l-11.1,5l31.8,14.5l1.6,0.7l1.6-0.7L83.3,39.1z"/>
		<path class="st0" d="M39.6,40.1c0.3,0.3,0.7,0.4,1,0.4s0.7-0.1,1-0.4l10.9-9.4c0.5-0.4,0.7-1.1,0.4-1.7c-0.2-0.6-0.8-1-1.5-1h-4.7
			v-7c0-2.2,1.8-3.9,3.9-3.9s3.9,1.8,3.9,3.9v16.4c0,0.9,0.7,1.6,1.6,1.6h9.4c0.9,0,1.6-0.7,1.6-1.6V21c0-9-7.4-16.4-16.4-16.4
			S34.4,11.9,34.4,21v7h-4.7c-0.7,0-1.2,0.4-1.5,1c-0.2,0.6,0,1.3,0.4,1.7L39.6,40.1z"/>
	</g>
</g>
</svg>
