<?xml version="1.0" encoding="utf-8"?>
<!-- Generator: Adobe Illustrator 25.2.1, SVG Export Plug-In . SVG Version: 6.00 Build 0)  -->
<svg version="1.1" id="Layer_1" xmlns="http://www.w3.org/2000/svg" xmlns:xlink="http://www.w3.org/1999/xlink" x="0px" y="0px"
	 viewBox="0 0 100 100" style="enable-background:new 0 0 100 100;" xml:space="preserve">
<style type="text/css">
	.st0{fill-rule:evenodd;clip-rule:evenodd;}
	.st1{fill-rule:evenodd;clip-rule:evenodd;fill:#1C7AB5;}
</style>
<g>
	<path class="st0" d="M58.3,45.5l13,18.6c15.4-1.2,23.7,16.2,16.6,27.7l-9.5-13.4l-11.9,7.9l9.5,13.4c-13,3.2-26.5-10.7-20.2-24.9
		l-5.5-8.3l2-3.2l3.6-0.4l2.8-4l-2-1.6c1.6-3.2,1.2-5.5-1.2-8.3L58.3,45.5z"/>
	<path class="st0" d="M44.1,25.3l8.7,12.3l-4.3,6.3c-3.2-1.2-5.9-0.8-8.3,2l-2-1.6l-1.6,2.4L29.1,36C13.6,37.2,4.9,20.2,12.5,8.7
		l9.1,13l11.9-7.9L23.9,0.4C37.4-2.4,50.4,11.5,44.1,25.3z"/>
	<g>
		<path class="st1" d="M35,94.5c-9.5,13.4-31.6-2-22.1-15.8l7.9-11.5l11.5-6.7l5.9-8.3L37.4,49l1.2-2l17.8,12.3l-1.6,2l-3.2,0.4
			L45.7,70l-2.4,13L35,94.5z M17.6,89.7c-2.8-2-4-4.3-3.2-5.5l10.3-14.6c3.2-2,7.5-4.3,11.1-5.5L17.6,89.7z M23.1,93.7
			c2.8,1.6,5.5,2.4,6.3,1.2l10.3-15c0.4-3.6,1.6-8.7,1.6-12.3L23.1,93.7z"/>
		<path class="st0" d="M54.7,56.9l-13.4-9.5c1.6-2,3.2-3.6,7.9-1.2L74.9,9.1l0.4-2.8l5.5-4l2.8,2l-2,6.3l-2.4,1.2L53.6,49
			C56.7,52.6,56.3,54.9,54.7,56.9z"/>
	</g>
</g>
</svg>
