<?xml version="1.0" encoding="utf-8"?>
<!-- Generator: Adobe Illustrator 25.2.1, SVG Export Plug-In . SVG Version: 6.00 Build 0)  -->
<svg version="1.1" id="Layer_1" xmlns="http://www.w3.org/2000/svg" xmlns:xlink="http://www.w3.org/1999/xlink" x="0px" y="0px"
	 viewBox="0 0 500 500" style="enable-background:new 0 0 500 500;" xml:space="preserve">
<style type="text/css">
	.st0{stroke:#FFFFFF;stroke-miterlimit:10;}
	.st1{fill:#1C7AB5;}
	.st2{fill:#FFFFFF;}
	.st3{fill-rule:evenodd;clip-rule:evenodd;fill:#1C7AB5;}
	.st4{enable-background:new    ;}
</style>
<circle class="st0" cx="250" cy="250" r="250"/>
<circle class="st1" cx="250" cy="250" r="222.1"/>
<circle class="st2" cx="250" cy="250" r="185.8"/>
<circle cx="250" cy="250" r="198.2"/>
<polygon class="st3" points="306,153.6 287.4,153.6 246.4,131.3 273,116.8 291.6,116.8 291.6,109.2 273.1,109.2 212.4,76.1 
	212.4,109.2 194,109.2 194,116.8 212.4,116.8 212.4,149.9 226.7,142 226.7,153.6 208.3,153.6 208.3,161.3 226.7,161.3 226.7,194.3 
	287.3,161.3 306,161.3 "/>
<g class="st4">
	<path class="st2" d="M83.3,217.7h37.8l19.1,55.9h0.2l19.1-55.9h37.8l-39,87.1h-36.1L83.3,217.7z"/>
	<path class="st2" d="M200.7,217.7h71c24.4,0,33.4,11,33.4,30.4c0,16.7-8.8,29.6-33.2,29.6h-36.8v27.1h-34.4V217.7z M235.1,256.5
		h22.2c8.7,0,12-2.7,12-9c0-6.6-3.3-9.3-12-9.3h-22.2V256.5z"/>
	<path class="st2" d="M315.8,217.7h72.4c9.9,0,15.9,0.9,20.6,3.2c6.5,3.2,11.8,11.6,11.8,21.1c0,8.2-3.4,17-13.4,19.9v0.2
		c5.1,1.5,9.3,5.9,9.9,13.4l1.5,19c0.4,3.9,2.1,7.6,4.3,10.2h-37.6c-1.2-2.6-1.2-6.3-1.8-16.5c-0.4-6.5-2.6-10.4-8.9-10.4h-24.4
		v26.8h-34.4V217.7z M350.2,256h24.4c6.7,0,9.5-2.7,9.5-8.2c0-6.6-4.3-8.2-10-8.2h-23.9V256z"/>
</g>
<g>
	<path class="st2" d="M117.8,321.8h6l9.8,36.4h-4.7l-2.6-10h-11.6l-2.7,10h-4.7L117.8,321.8z M115.6,344.5h9.8l-4.6-17.6h-0.1
		L115.6,344.5z"/>
	<path class="st2" d="M152.3,321.8h4.5v32.4h14.8v4h-19.3V321.8z"/>
	<path class="st2" d="M191.2,321.8h4.5v32.4h14.8v4h-19.3V321.8z"/>
	<path class="st2" d="M230,321.8h4.5v36.4H230V321.8z"/>
	<path class="st2" d="M263.7,321.8h6l9.8,36.4h-4.7l-2.6-10h-11.6l-2.7,10h-4.7L263.7,321.8z M261.5,344.5h9.8l-4.6-17.6h-0.1
		L261.5,344.5z"/>
	<path class="st2" d="M298.2,321.8h5.8l12,30.4h0.1v-30.4h4.5v36.4h-6.2l-11.7-29.5h-0.1v29.5h-4.5v-36.4H298.2z"/>
	<path class="st2" d="M365,345.7c-0.4,6.9-3.1,13.2-11.1,13.2c-10.4,0-11.7-9.7-11.7-18.9c0-9.2,1.7-18.9,11.7-18.9
		c7.4,0,10.6,4.2,10.8,11.3H360c-0.1-4.1-1.4-7.7-6.1-7.7c-6.2,0-7,6.8-7,15.2c0,8.4,0.8,15.2,7,15.2c5.5,0,6.2-5.1,6.4-9.5
		L365,345.7L365,345.7z"/>
	<path class="st2" d="M385.4,321.8h18.8v4h-14.3v11.4h13.5v4h-13.5v13.1h14.9v4h-19.4V321.8z"/>
</g>
</svg>
